<svg width="40" height="40" viewBox="0 0 40 40" fill="none" xmlns="http://www.w3.org/2000/svg">
<rect width="40" height="40" rx="20" fill="white"/>
<path d="M8.53252 15.3232C8.48185 15.3232 8.43119 15.2788 8.38052 15.1902C8.32985 15.1015 8.30452 15.0065 8.30452 14.9052C8.30452 14.7278 8.37419 14.6075 8.51352 14.5442C9.10885 14.2528 9.64085 13.9615 10.1095 13.6702C10.5782 13.3788 11.1292 13.1318 11.7625 12.9292C12.3452 12.7518 12.9785 12.6188 13.6625 12.5302C14.3592 12.4415 14.9799 12.3972 15.5245 12.3972H16.1705C16.5632 12.3972 16.9305 12.4162 17.2725 12.4542C17.6145 12.4922 17.9249 12.5998 18.2035 12.7772C18.2035 12.7772 18.2669 12.8025 18.3935 12.8532C18.5329 12.9038 18.6405 12.9862 18.7165 13.1002C18.7672 13.1635 18.7989 13.2332 18.8115 13.3092C18.8242 13.3852 18.8305 13.4675 18.8305 13.5562C18.8305 13.6068 18.8305 13.6575 18.8305 13.7082C18.8305 13.7588 18.8242 13.8158 18.8115 13.8792C18.7989 13.9805 18.7799 14.1008 18.7545 14.2402C18.7419 14.3668 18.6849 14.4808 18.5835 14.5822C18.5075 14.6962 18.4125 14.7722 18.2985 14.8102C18.1845 14.8482 18.1149 14.8672 18.0895 14.8672H18.0515C17.9375 14.8672 17.8552 14.8355 17.8045 14.7722C17.7665 14.7088 17.7475 14.6328 17.7475 14.5442C17.7475 14.3922 17.7729 14.2465 17.8235 14.1072C17.8869 13.9552 17.9185 13.8728 17.9185 13.8602V13.8412C17.9185 13.7525 17.8299 13.6448 17.6525 13.5182C17.3485 13.3028 16.9875 13.1762 16.5695 13.1382C16.1515 13.1002 15.6892 13.0812 15.1825 13.0812C14.7265 13.0812 14.2072 13.1445 13.6245 13.2712C13.0545 13.3852 12.4592 13.5498 11.8385 13.7652C11.2305 13.9805 10.6415 14.2212 10.0715 14.4872C9.51419 14.7405 9.02019 15.0128 8.58952 15.3042C8.57685 15.3168 8.55785 15.3232 8.53252 15.3232ZM11.4965 23.7212C11.2939 23.7212 11.0912 23.6388 10.8885 23.4742C10.6985 23.3222 10.6225 23.0688 10.6605 22.7142C10.6985 22.3215 10.7935 21.8212 10.9455 21.2132C11.1102 20.6052 11.3065 19.9528 11.5345 19.2562C11.7752 18.5468 12.0285 17.8375 12.2945 17.1282C12.5732 16.4188 12.8392 15.7602 13.0925 15.1522C13.3585 14.5315 13.5992 14.0122 13.8145 13.5942C13.9285 13.3915 14.0869 13.2902 14.2895 13.2902C14.4035 13.2902 14.5049 13.3345 14.5935 13.4232C14.6822 13.4992 14.7265 13.6195 14.7265 13.7842C14.7265 13.8222 14.7075 13.9235 14.6695 14.0882C14.6442 14.2528 14.5999 14.4302 14.5365 14.6202C14.4859 14.7975 14.4289 14.9368 14.3655 15.0382C14.2389 15.2408 14.0869 15.4562 13.9095 15.6842C13.7322 15.8995 13.5739 16.1528 13.4345 16.4442C12.8139 17.7488 12.3452 18.9205 12.0285 19.9592C11.7245 20.9852 11.5472 21.8212 11.4965 22.4672C11.4965 22.5558 11.5345 22.6508 11.6105 22.7522C11.6992 22.8535 11.7815 22.9548 11.8575 23.0562C11.9462 23.1575 11.9905 23.2588 11.9905 23.3602C11.9905 23.4615 11.9272 23.5565 11.8005 23.6452C11.7372 23.6958 11.6359 23.7212 11.4965 23.7212Z" fill="#333333"/>
<path d="M14.633 22.9722C14.465 22.9722 14.3 22.9362 14.138 22.8642C13.982 22.7922 13.853 22.6932 13.751 22.5672C13.649 22.4412 13.598 22.2972 13.598 22.1352C13.598 21.8952 13.661 21.6852 13.787 21.5052C13.913 21.3252 14.072 21.1722 14.264 21.0462C14.462 20.9202 14.663 20.8242 14.867 20.7582C15.065 20.6922 15.281 20.6592 15.515 20.6592C15.761 20.6592 15.998 20.7042 16.226 20.7942C16.46 20.8782 16.625 21.0252 16.721 21.2352C16.769 21.0792 16.805 20.9262 16.829 20.7762C16.853 20.6202 16.865 20.4852 16.865 20.3712C16.865 20.1792 16.826 20.0322 16.748 19.9302C16.676 19.8282 16.544 19.7772 16.352 19.7772C16.274 19.7772 16.184 19.8072 16.082 19.8672C15.98 19.9212 15.881 19.9932 15.785 20.0832C15.749 20.1192 15.722 20.1432 15.704 20.1552C15.692 20.1672 15.659 20.1732 15.605 20.1732C15.545 20.1732 15.497 20.1522 15.461 20.1102C15.431 20.0682 15.416 20.0202 15.416 19.9662C15.416 19.8942 15.443 19.8312 15.497 19.7772C15.551 19.7232 15.611 19.6632 15.677 19.5972C15.743 19.5312 15.827 19.4742 15.929 19.4262C16.037 19.3722 16.172 19.3452 16.334 19.3452C16.67 19.3452 16.916 19.4232 17.072 19.5792C17.228 19.7352 17.306 19.9902 17.306 20.3442C17.306 20.5182 17.282 20.6982 17.234 20.8842C17.192 21.0702 17.141 21.2682 17.081 21.4782C17.045 21.6102 16.994 21.7602 16.928 21.9282C16.868 22.0902 16.79 22.2522 16.694 22.4142C16.598 22.5762 16.481 22.7142 16.343 22.8282C16.301 22.8642 16.256 22.8822 16.208 22.8822C16.148 22.8822 16.097 22.8612 16.055 22.8192C16.013 22.7772 15.992 22.7292 15.992 22.6752C15.992 22.6212 16.019 22.5672 16.073 22.5132C16.139 22.4592 16.208 22.3722 16.28 22.2522C16.358 22.1322 16.43 21.9822 16.496 21.8022C16.478 21.5562 16.361 21.3762 16.145 21.2622C15.935 21.1482 15.701 21.0912 15.443 21.0912C15.293 21.0912 15.149 21.1092 15.011 21.1452C14.861 21.1872 14.711 21.2592 14.561 21.3612C14.411 21.4572 14.285 21.5712 14.183 21.7032C14.087 21.8352 14.039 21.9732 14.039 22.1172C14.039 22.2312 14.096 22.3332 14.21 22.4232C14.33 22.5132 14.471 22.5582 14.633 22.5582C14.771 22.5582 14.879 22.5552 14.957 22.5492C15.041 22.5432 15.119 22.5252 15.191 22.4952C15.269 22.4592 15.368 22.3962 15.488 22.3062C15.542 22.2702 15.587 22.2522 15.623 22.2522C15.671 22.2522 15.71 22.2672 15.74 22.2972C15.77 22.3272 15.785 22.3662 15.785 22.4142C15.785 22.4802 15.752 22.5372 15.686 22.5852C15.482 22.7532 15.302 22.8612 15.146 22.9092C14.996 22.9512 14.825 22.9722 14.633 22.9722ZM17.8203 23.5212C17.7783 23.5212 17.7303 23.5182 17.6763 23.5122C17.6283 23.5062 17.5773 23.4972 17.5233 23.4852C17.4453 23.4672 17.4063 23.4102 17.4063 23.3142C17.4063 23.2602 17.4273 23.2122 17.4693 23.1702C17.5113 23.1222 17.5713 23.1042 17.6493 23.1162C17.7153 23.1222 17.8203 23.1072 17.9643 23.0712C18.1143 23.0352 18.2793 22.9872 18.4593 22.9272C18.7233 22.8312 18.9393 22.7292 19.1073 22.6212C19.2753 22.5132 19.4133 22.3872 19.5213 22.2432C19.6353 22.0992 19.6923 21.9612 19.6923 21.8292C19.6923 21.7692 19.6803 21.7122 19.6563 21.6582C19.6323 21.5982 19.5873 21.5412 19.5213 21.4872C19.4193 21.3972 19.2963 21.3132 19.1523 21.2352C19.0083 21.1572 18.8673 21.0762 18.7293 20.9922C18.5913 20.9022 18.4743 20.8032 18.3783 20.6952C18.2883 20.5812 18.2433 20.4432 18.2433 20.2812C18.2433 20.1372 18.2943 20.0142 18.3963 19.9122C18.4983 19.8042 18.6153 19.7172 18.7473 19.6512C18.8853 19.5792 19.0023 19.5282 19.0983 19.4982C19.1943 19.4682 19.2903 19.4472 19.3863 19.4352C19.4823 19.4172 19.5783 19.4082 19.6743 19.4082C19.7883 19.4082 19.8963 19.4232 19.9983 19.4532C20.1063 19.4772 20.2083 19.5222 20.3043 19.5882C20.3583 19.6242 20.3973 19.6662 20.4213 19.7142C20.4453 19.7622 20.4573 19.8102 20.4573 19.8582C20.4573 19.9242 20.4363 19.9842 20.3943 20.0382C20.3583 20.0862 20.3073 20.1102 20.2413 20.1102C20.1933 20.1102 20.1303 20.0862 20.0523 20.0382H20.0613C19.9293 19.9422 19.7763 19.8942 19.6023 19.8942C19.5063 19.8942 19.4193 19.9062 19.3413 19.9302C19.2153 19.9602 19.0923 19.9992 18.9723 20.0472C18.8523 20.0952 18.7773 20.1702 18.7473 20.2722C18.7293 20.3502 18.7743 20.4372 18.8823 20.5332C18.9963 20.6232 19.1373 20.7162 19.3053 20.8122C19.4733 20.9022 19.6293 20.9922 19.7733 21.0822C19.9113 21.1602 20.0223 21.2652 20.1063 21.3972C20.1903 21.5292 20.2323 21.6702 20.2323 21.8202C20.2323 22.0062 20.1633 22.1862 20.0253 22.3602C19.8033 22.6302 19.5723 22.8402 19.3323 22.9902C19.0983 23.1402 18.8343 23.2632 18.5403 23.3592C18.3783 23.4132 18.2433 23.4522 18.1353 23.4762C18.0273 23.5062 17.9223 23.5212 17.8203 23.5212ZM21.3971 23.4402C21.3131 23.4402 21.2321 23.4102 21.1541 23.3502C21.0761 23.2962 21.0371 23.1972 21.0371 23.0532C21.0371 23.0352 21.0371 23.0172 21.0371 22.9992C21.0371 22.9752 21.0401 22.9512 21.0461 22.9272C21.1781 22.1832 21.3371 21.5412 21.5231 21.0012C21.7091 20.4612 21.9041 19.9902 22.1081 19.5882C22.3121 19.1862 22.4981 18.8232 22.6661 18.4992C22.7141 18.4092 22.7771 18.3432 22.8551 18.3012C22.9391 18.2532 23.0171 18.2292 23.0891 18.2292C23.2211 18.2292 23.2871 18.2802 23.2871 18.3822C23.2871 18.4542 23.2511 18.5352 23.1791 18.6252C23.0531 18.7692 22.9121 18.9792 22.7561 19.2552C22.6061 19.5312 22.4561 19.8402 22.3061 20.1822C22.1561 20.5182 22.0241 20.8572 21.9101 21.1992C21.9581 21.1692 22.0061 21.1422 22.0541 21.1182C22.1021 21.0882 22.1471 21.0612 22.1891 21.0372C22.3331 20.9652 22.4981 20.8872 22.6841 20.8032C22.8761 20.7132 23.0681 20.6352 23.2601 20.5692C23.4521 20.4972 23.6231 20.4492 23.7731 20.4252C23.8031 20.4192 23.8361 20.4132 23.8721 20.4072C23.9141 20.4012 23.9531 20.3982 23.9891 20.3982C24.0311 20.3982 24.0641 20.4102 24.0881 20.4342C24.1181 20.4582 24.1331 20.5032 24.1331 20.5692C24.1331 20.6892 24.1001 20.7672 24.0341 20.8032C23.9741 20.8392 23.9081 20.8632 23.8361 20.8752C23.7221 20.8872 23.5751 20.9262 23.3951 20.9922C23.2211 21.0522 23.0411 21.1242 22.8551 21.2082C22.6751 21.2862 22.5161 21.3612 22.3781 21.4332C22.2941 21.4632 22.2191 21.5112 22.1531 21.5772C22.0871 21.6372 22.0391 21.6912 22.0091 21.7392C21.9791 21.7812 21.9761 21.7962 22.0001 21.7842C22.0181 21.8442 22.0691 21.9192 22.1531 22.0092C22.2371 22.0992 22.3361 22.1892 22.4501 22.2792C22.5701 22.3632 22.6871 22.4412 22.8011 22.5132C22.9211 22.5792 23.0201 22.6272 23.0981 22.6572C23.2361 22.6992 23.3321 22.7502 23.3861 22.8102C23.4461 22.8642 23.4761 22.9152 23.4761 22.9632C23.4761 23.0112 23.4521 23.0532 23.4041 23.0892C23.3621 23.1252 23.3081 23.1432 23.2421 23.1432C23.2181 23.1432 23.1881 23.1372 23.1521 23.1252C23.0201 23.0772 22.8521 23.0022 22.6481 22.9002C22.4501 22.7982 22.2581 22.6782 22.0721 22.5402C21.8861 22.4022 21.7451 22.2612 21.6491 22.1172H21.6401C21.6161 22.2492 21.5861 22.3992 21.5501 22.5672C21.5201 22.7352 21.5081 22.8702 21.5141 22.9722C21.5141 23.0082 21.5381 23.0502 21.5861 23.0982C21.6401 23.1402 21.6671 23.1882 21.6671 23.2422C21.6671 23.2962 21.6341 23.3472 21.5681 23.3952C21.5201 23.4252 21.4631 23.4402 21.3971 23.4402ZM25.8576 19.7232C25.8276 19.7592 25.7886 19.7622 25.7406 19.7322C25.6986 19.7022 25.6626 19.6572 25.6326 19.5972C25.6026 19.5312 25.5936 19.4682 25.6056 19.4082H25.6146C25.6386 19.3182 25.6686 19.2432 25.7046 19.1832C25.7406 19.1232 25.7886 19.0632 25.8486 19.0032C25.8846 18.9672 25.9326 18.9492 25.9926 18.9492C26.0466 18.9492 26.0946 18.9672 26.1366 19.0032C26.1846 19.0332 26.2086 19.0722 26.2086 19.1202C26.2086 19.1442 26.1996 19.1712 26.1816 19.2012C26.1636 19.2252 26.1276 19.2882 26.0736 19.3902C26.0256 19.4922 25.9536 19.6032 25.8576 19.7232ZM24.7236 23.0442C24.6276 23.0442 24.5316 23.0082 24.4356 22.9362C24.3456 22.8582 24.3096 22.7352 24.3276 22.5672C24.3516 22.3332 24.3846 22.1352 24.4266 21.9732C24.4686 21.8112 24.5166 21.6642 24.5706 21.5322C24.6246 21.3942 24.6816 21.2472 24.7416 21.0912C24.8076 20.9352 24.8736 20.7462 24.9396 20.5242C24.9756 20.4222 25.0506 20.3712 25.1646 20.3712C25.2426 20.3712 25.3116 20.3952 25.3716 20.4432C25.4316 20.4912 25.4496 20.5572 25.4256 20.6412C25.3476 20.8932 25.2696 21.0972 25.1916 21.2532C25.1136 21.4092 25.0416 21.5472 24.9756 21.6672C24.9096 21.7812 24.8526 21.9072 24.8046 22.0452C24.7626 22.1772 24.7356 22.3482 24.7236 22.5582C24.7236 22.5762 24.7626 22.6152 24.8406 22.6752C24.9186 22.7292 24.9576 22.7922 24.9576 22.8642C24.9576 22.9182 24.9276 22.9662 24.8676 23.0082C24.8376 23.0322 24.7896 23.0442 24.7236 23.0442ZM26.3096 23.7462C26.2496 23.7462 26.1926 23.7072 26.1386 23.6292C26.0906 23.5512 26.0666 23.4132 26.0666 23.2152C26.0666 22.9752 26.1026 22.6842 26.1746 22.3422C26.2526 22.0002 26.3516 21.6342 26.4716 21.2442C26.5976 20.8542 26.7296 20.4732 26.8676 20.1012H26.8586C26.7986 20.0892 26.7656 20.0502 26.7596 19.9842C26.7356 19.9062 26.7536 19.8312 26.8136 19.7592C26.8736 19.6872 26.9306 19.6512 26.9846 19.6512H27.0386C27.1766 19.3092 27.3056 19.0062 27.4256 18.7422C27.5516 18.4722 27.6536 18.2742 27.7316 18.1482C27.8516 17.9562 27.9956 17.8122 28.1636 17.7162C28.3316 17.6142 28.4996 17.5632 28.6676 17.5632C28.7936 17.5632 28.9136 17.5932 29.0276 17.6532C29.1416 17.7132 29.2376 17.8092 29.3156 17.9412C29.4176 18.0972 29.4836 18.2352 29.5136 18.3552C29.5496 18.4692 29.5736 18.6282 29.5856 18.8322V18.8412C29.5856 18.8892 29.5676 18.9252 29.5316 18.9492C29.4956 18.9732 29.4566 18.9852 29.4146 18.9852C29.3306 18.9852 29.2766 18.9462 29.2526 18.8682C29.2346 18.7842 29.1866 18.6672 29.1086 18.5172C28.9526 18.2052 28.7846 18.0492 28.6046 18.0492C28.4186 18.0492 28.2116 18.2232 27.9836 18.5712C27.9476 18.6192 27.8996 18.7062 27.8396 18.8322C27.7796 18.9522 27.7166 19.0842 27.6506 19.2282C27.5846 19.3722 27.5246 19.5042 27.4706 19.6242C27.5246 19.6182 27.5786 19.6152 27.6326 19.6152C27.6866 19.6152 27.7406 19.6152 27.7946 19.6152C27.8966 19.6152 28.0016 19.6182 28.1096 19.6242C28.2236 19.6302 28.3526 19.6422 28.4966 19.6602C28.5266 19.6662 28.5566 19.6872 28.5866 19.7232C28.6166 19.7592 28.6316 19.7982 28.6316 19.8402C28.6316 19.8642 28.6196 19.8912 28.5956 19.9212C28.5776 19.9452 28.5386 19.9602 28.4786 19.9662C28.2746 19.9902 28.0556 20.0052 27.8216 20.0112C27.5936 20.0112 27.4196 20.0172 27.2996 20.0292C27.2096 20.2632 27.1166 20.5272 27.0206 20.8212C26.9246 21.1092 26.8346 21.4032 26.7506 21.7032C26.6666 22.0032 26.5976 22.2852 26.5436 22.5492C26.4956 22.8072 26.4746 23.0202 26.4806 23.1882C26.4806 23.2482 26.4956 23.3022 26.5256 23.3502C26.5556 23.4042 26.5706 23.4582 26.5706 23.5122C26.5706 23.5362 26.5616 23.5632 26.5436 23.5932C26.5256 23.6292 26.4926 23.6652 26.4446 23.7012C26.3966 23.7312 26.3516 23.7462 26.3096 23.7462ZM28.8568 25.3842C28.7548 25.3842 28.6588 25.3722 28.5688 25.3482C28.4488 25.3122 28.3528 25.2492 28.2808 25.1592C28.2088 25.0692 28.1728 24.9762 28.1728 24.8802C28.1728 24.7782 28.1788 24.7092 28.1908 24.6732C28.2028 24.6372 28.2298 24.6192 28.2718 24.6192C28.3078 24.6192 28.3708 24.6282 28.4608 24.6462C28.5088 24.6462 28.5568 24.6852 28.6048 24.7632C28.6528 24.8472 28.7068 24.9042 28.7668 24.9342C28.8448 24.9642 28.9108 24.9792 28.9648 24.9792C29.0728 24.9792 29.1718 24.9522 29.2618 24.8982C29.3578 24.8442 29.4388 24.7872 29.5048 24.7272C29.7208 24.5412 29.9068 24.3492 30.0628 24.1512C30.2188 23.9532 30.3628 23.7282 30.4948 23.4762C30.6328 23.2302 30.7678 22.9422 30.8998 22.6122C30.9418 22.5162 30.9808 22.4052 31.0168 22.2792C31.0588 22.1472 31.0918 22.0242 31.1158 21.9102C31.1458 21.7902 31.1578 21.7032 31.1518 21.6492C31.1218 21.6732 31.0888 21.7002 31.0528 21.7302C31.0228 21.7602 30.9898 21.7902 30.9538 21.8202C30.8158 21.9462 30.6508 22.0722 30.4588 22.1982C30.2728 22.3242 30.0748 22.4292 29.8648 22.5132C29.6548 22.5972 29.4388 22.6392 29.2168 22.6392C29.0188 22.6392 28.8328 22.6002 28.6588 22.5222C28.4548 22.4262 28.3108 22.3002 28.2268 22.1442C28.1428 21.9882 28.1008 21.8232 28.1008 21.6492C28.1008 21.5652 28.1068 21.4842 28.1188 21.4062C28.1368 21.3282 28.1578 21.2502 28.1818 21.1722C28.2298 21.0042 28.3168 20.8512 28.4428 20.7132C28.5688 20.5692 28.7098 20.4492 28.8658 20.3532C29.0218 20.2572 29.1718 20.1942 29.3158 20.1642C29.3278 20.1582 29.3428 20.1552 29.3608 20.1552C29.3788 20.1552 29.3938 20.1552 29.4058 20.1552C29.4898 20.1552 29.5588 20.1792 29.6128 20.2272C29.6668 20.2692 29.6938 20.3142 29.6938 20.3622C29.6938 20.4222 29.6518 20.4702 29.5678 20.5062C29.4238 20.5602 29.2948 20.6142 29.1808 20.6682C29.0728 20.7222 28.9768 20.7942 28.8928 20.8842C28.8148 20.9742 28.7428 21.1062 28.6768 21.2802C28.6588 21.3282 28.6438 21.3852 28.6318 21.4512C28.6198 21.5172 28.6138 21.5862 28.6138 21.6582C28.6138 21.7722 28.6318 21.8832 28.6678 21.9912C28.7098 22.0992 28.7788 22.1682 28.8748 22.1982C28.9948 22.2342 29.1118 22.2522 29.2258 22.2522C29.4898 22.2522 29.7478 22.1832 29.9998 22.0452C30.2578 21.9012 30.4828 21.7482 30.6748 21.5862C30.9388 21.3762 31.1068 21.2022 31.1788 21.0642C31.2568 20.9202 31.3108 20.7972 31.3408 20.6952C31.3588 20.6292 31.3918 20.5842 31.4398 20.5602C31.4878 20.5302 31.5388 20.5152 31.5928 20.5152C31.6588 20.5152 31.7188 20.5392 31.7728 20.5872C31.8328 20.6292 31.8508 20.6862 31.8268 20.7582C31.7368 21.0882 31.6408 21.4512 31.5388 21.8472C31.4428 22.2432 31.3168 22.6422 31.1608 23.0442C31.0108 23.4462 30.8128 23.8272 30.5668 24.1872C30.3208 24.5532 30.0058 24.8712 29.6218 25.1412C29.5258 25.2072 29.4118 25.2642 29.2798 25.3122C29.1478 25.3602 29.0068 25.3842 28.8568 25.3842Z" fill="#333333"/>
</svg>
