<svg width="40" height="40" viewBox="0 0 40 40" fill="none" xmlns="http://www.w3.org/2000/svg">
<rect width="40" height="40" rx="20" fill="#1D3557"/>
<path d="M12.3 17.0362C12.2573 17.0362 12.2147 16.9988 12.172 16.9242C12.1293 16.8495 12.108 16.7695 12.108 16.6842C12.108 16.5348 12.1667 16.4335 12.284 16.3802C12.7853 16.1348 13.2333 15.8895 13.628 15.6442C14.0227 15.3988 14.4867 15.1908 15.02 15.0202C15.5107 14.8708 16.044 14.7588 16.62 14.6842C17.2067 14.6095 17.7293 14.5722 18.188 14.5722H18.732C19.0627 14.5722 19.372 14.5882 19.66 14.6202C19.948 14.6522 20.2093 14.7428 20.444 14.8922C20.444 14.8922 20.4973 14.9135 20.604 14.9562C20.7213 14.9988 20.812 15.0682 20.876 15.1642C20.9187 15.2175 20.9453 15.2762 20.956 15.3402C20.9667 15.4042 20.972 15.4735 20.972 15.5482C20.972 15.5908 20.972 15.6335 20.972 15.6762C20.972 15.7188 20.9667 15.7668 20.956 15.8202C20.9453 15.9055 20.9293 16.0068 20.908 16.1242C20.8973 16.2308 20.8493 16.3268 20.764 16.4122C20.7 16.5082 20.62 16.5722 20.524 16.6042C20.428 16.6362 20.3693 16.6522 20.348 16.6522H20.316C20.22 16.6522 20.1507 16.6255 20.108 16.5722C20.076 16.5188 20.06 16.4548 20.06 16.3802C20.06 16.2522 20.0813 16.1295 20.124 16.0122C20.1773 15.8842 20.204 15.8148 20.204 15.8042V15.7882C20.204 15.7135 20.1293 15.6228 19.98 15.5162C19.724 15.3348 19.42 15.2282 19.068 15.1962C18.716 15.1642 18.3267 15.1482 17.9 15.1482C17.516 15.1482 17.0787 15.2015 16.588 15.3082C16.108 15.4042 15.6067 15.5428 15.084 15.7242C14.572 15.9055 14.076 16.1082 13.596 16.3322C13.1267 16.5455 12.7107 16.7748 12.348 17.0202C12.3373 17.0308 12.3213 17.0362 12.3 17.0362ZM14.796 24.1082C14.6253 24.1082 14.4547 24.0388 14.284 23.9002C14.124 23.7722 14.06 23.5588 14.092 23.2602C14.124 22.9295 14.204 22.5082 14.332 21.9962C14.4707 21.4842 14.636 20.9348 14.828 20.3482C15.0307 19.7508 15.244 19.1535 15.468 18.5562C15.7027 17.9588 15.9267 17.4042 16.14 16.8922C16.364 16.3695 16.5667 15.9322 16.748 15.5802C16.844 15.4095 16.9773 15.3242 17.148 15.3242C17.244 15.3242 17.3293 15.3615 17.404 15.4362C17.4787 15.5002 17.516 15.6015 17.516 15.7402C17.516 15.7722 17.5 15.8575 17.468 15.9962C17.4467 16.1348 17.4093 16.2842 17.356 16.4442C17.3133 16.5935 17.2653 16.7108 17.212 16.7962C17.1053 16.9668 16.9773 17.1482 16.828 17.3402C16.6787 17.5215 16.5453 17.7348 16.428 17.9802C15.9053 19.0788 15.5107 20.0655 15.244 20.9402C14.988 21.8042 14.8387 22.5082 14.796 23.0522C14.796 23.1268 14.828 23.2068 14.892 23.2922C14.9667 23.3775 15.036 23.4628 15.1 23.5482C15.1747 23.6335 15.212 23.7188 15.212 23.8042C15.212 23.8895 15.1587 23.9695 15.052 24.0442C14.9987 24.0868 14.9133 24.1082 14.796 24.1082Z" fill="white"/>
<path d="M16.31 23.5122C16.198 23.5122 16.088 23.4882 15.98 23.4402C15.876 23.3922 15.79 23.3262 15.722 23.2422C15.654 23.1582 15.62 23.0622 15.62 22.9542C15.62 22.7942 15.662 22.6542 15.746 22.5342C15.83 22.4142 15.936 22.3122 16.064 22.2282C16.196 22.1442 16.33 22.0802 16.466 22.0362C16.598 21.9922 16.742 21.9702 16.898 21.9702C17.062 21.9702 17.22 22.0002 17.372 22.0602C17.528 22.1162 17.638 22.2142 17.702 22.3542C17.734 22.2502 17.758 22.1482 17.774 22.0482C17.79 21.9442 17.798 21.8542 17.798 21.7782C17.798 21.6502 17.772 21.5522 17.72 21.4842C17.672 21.4162 17.584 21.3822 17.456 21.3822C17.404 21.3822 17.344 21.4022 17.276 21.4422C17.208 21.4782 17.142 21.5262 17.078 21.5862C17.054 21.6102 17.036 21.6262 17.024 21.6342C17.016 21.6422 16.994 21.6462 16.958 21.6462C16.918 21.6462 16.886 21.6322 16.862 21.6042C16.842 21.5762 16.832 21.5442 16.832 21.5082C16.832 21.4602 16.85 21.4182 16.886 21.3822C16.922 21.3462 16.962 21.3062 17.006 21.2622C17.05 21.2182 17.106 21.1802 17.174 21.1482C17.246 21.1122 17.336 21.0942 17.444 21.0942C17.668 21.0942 17.832 21.1462 17.936 21.2502C18.04 21.3542 18.092 21.5242 18.092 21.7602C18.092 21.8762 18.076 21.9962 18.044 22.1202C18.016 22.2442 17.982 22.3762 17.942 22.5162C17.918 22.6042 17.884 22.7042 17.84 22.8162C17.8 22.9242 17.748 23.0322 17.684 23.1402C17.62 23.2482 17.542 23.3402 17.45 23.4162C17.422 23.4402 17.392 23.4522 17.36 23.4522C17.32 23.4522 17.286 23.4382 17.258 23.4102C17.23 23.3822 17.216 23.3502 17.216 23.3142C17.216 23.2782 17.234 23.2422 17.27 23.2062C17.314 23.1702 17.36 23.1122 17.408 23.0322C17.46 22.9522 17.508 22.8522 17.552 22.7322C17.54 22.5682 17.462 22.4482 17.318 22.3722C17.178 22.2962 17.022 22.2582 16.85 22.2582C16.75 22.2582 16.654 22.2702 16.562 22.2942C16.462 22.3222 16.362 22.3702 16.262 22.4382C16.162 22.5022 16.078 22.5782 16.01 22.6662C15.946 22.7542 15.914 22.8462 15.914 22.9422C15.914 23.0182 15.952 23.0862 16.028 23.1462C16.108 23.2062 16.202 23.2362 16.31 23.2362C16.402 23.2362 16.474 23.2342 16.526 23.2302C16.582 23.2262 16.634 23.2142 16.682 23.1942C16.734 23.1702 16.8 23.1282 16.88 23.0682C16.916 23.0442 16.946 23.0322 16.97 23.0322C17.002 23.0322 17.028 23.0422 17.048 23.0622C17.068 23.0822 17.078 23.1082 17.078 23.1402C17.078 23.1842 17.056 23.2222 17.012 23.2542C16.876 23.3662 16.756 23.4382 16.652 23.4702C16.552 23.4982 16.438 23.5122 16.31 23.5122ZM18.4349 23.8782C18.4069 23.8782 18.3749 23.8762 18.3389 23.8722C18.3069 23.8682 18.2729 23.8622 18.2369 23.8542C18.1849 23.8422 18.1589 23.8042 18.1589 23.7402C18.1589 23.7042 18.1729 23.6722 18.2009 23.6442C18.2289 23.6122 18.2689 23.6002 18.3209 23.6082C18.3649 23.6122 18.4349 23.6022 18.5309 23.5782C18.6309 23.5542 18.7409 23.5222 18.8609 23.4822C19.0369 23.4182 19.1809 23.3502 19.2929 23.2782C19.4049 23.2062 19.4969 23.1222 19.5689 23.0262C19.6449 22.9302 19.6829 22.8382 19.6829 22.7502C19.6829 22.7102 19.6749 22.6722 19.6589 22.6362C19.6429 22.5962 19.6129 22.5582 19.5689 22.5222C19.5009 22.4622 19.4189 22.4062 19.3229 22.3542C19.2269 22.3022 19.1329 22.2482 19.0409 22.1922C18.9489 22.1322 18.8709 22.0662 18.8069 21.9942C18.7469 21.9182 18.7169 21.8262 18.7169 21.7182C18.7169 21.6222 18.7509 21.5402 18.8189 21.4722C18.8869 21.4002 18.9649 21.3422 19.0529 21.2982C19.1449 21.2502 19.2229 21.2162 19.2869 21.1962C19.3509 21.1762 19.4149 21.1622 19.4789 21.1542C19.5429 21.1422 19.6069 21.1362 19.6709 21.1362C19.7469 21.1362 19.8189 21.1462 19.8869 21.1662C19.9589 21.1822 20.0269 21.2122 20.0909 21.2562C20.1269 21.2802 20.1529 21.3082 20.1689 21.3402C20.1849 21.3722 20.1929 21.4042 20.1929 21.4362C20.1929 21.4802 20.1789 21.5202 20.1509 21.5562C20.1269 21.5882 20.0929 21.6042 20.0489 21.6042C20.0169 21.6042 19.9749 21.5882 19.9229 21.5562H19.9289C19.8409 21.4922 19.7389 21.4602 19.6229 21.4602C19.5589 21.4602 19.5009 21.4682 19.4489 21.4842C19.3649 21.5042 19.2829 21.5302 19.2029 21.5622C19.1229 21.5942 19.0729 21.6442 19.0529 21.7122C19.0409 21.7642 19.0709 21.8222 19.1429 21.8862C19.2189 21.9462 19.3129 22.0082 19.4249 22.0722C19.5369 22.1322 19.6409 22.1922 19.7369 22.2522C19.8289 22.3042 19.9029 22.3742 19.9589 22.4622C20.0149 22.5502 20.0429 22.6442 20.0429 22.7442C20.0429 22.8682 19.9969 22.9882 19.9049 23.1042C19.7569 23.2842 19.6029 23.4242 19.4429 23.5242C19.2869 23.6242 19.1109 23.7062 18.9149 23.7702C18.8069 23.8062 18.7169 23.8322 18.6449 23.8482C18.5729 23.8682 18.5029 23.8782 18.4349 23.8782ZM20.8194 23.8242C20.7634 23.8242 20.7094 23.8042 20.6574 23.7642C20.6054 23.7282 20.5794 23.6622 20.5794 23.5662C20.5794 23.5542 20.5794 23.5422 20.5794 23.5302C20.5794 23.5142 20.5814 23.4982 20.5854 23.4822C20.6734 22.9862 20.7794 22.5582 20.9034 22.1982C21.0274 21.8382 21.1574 21.5242 21.2934 21.2562C21.4294 20.9882 21.5534 20.7462 21.6654 20.5302C21.6974 20.4702 21.7394 20.4262 21.7914 20.3982C21.8474 20.3662 21.8994 20.3502 21.9474 20.3502C22.0354 20.3502 22.0794 20.3842 22.0794 20.4522C22.0794 20.5002 22.0554 20.5542 22.0074 20.6142C21.9234 20.7102 21.8294 20.8502 21.7254 21.0342C21.6254 21.2182 21.5254 21.4242 21.4254 21.6522C21.3254 21.8762 21.2374 22.1022 21.1614 22.3302C21.1934 22.3102 21.2254 22.2922 21.2574 22.2762C21.2894 22.2562 21.3194 22.2382 21.3474 22.2222C21.4434 22.1742 21.5534 22.1222 21.6774 22.0662C21.8054 22.0062 21.9334 21.9542 22.0614 21.9102C22.1894 21.8622 22.3034 21.8302 22.4034 21.8142C22.4234 21.8102 22.4454 21.8062 22.4694 21.8022C22.4974 21.7982 22.5234 21.7962 22.5474 21.7962C22.5754 21.7962 22.5974 21.8042 22.6134 21.8202C22.6334 21.8362 22.6434 21.8662 22.6434 21.9102C22.6434 21.9902 22.6214 22.0422 22.5774 22.0662C22.5374 22.0902 22.4934 22.1062 22.4454 22.1142C22.3694 22.1222 22.2714 22.1482 22.1514 22.1922C22.0354 22.2322 21.9154 22.2802 21.7914 22.3362C21.6714 22.3882 21.5654 22.4382 21.4734 22.4862C21.4174 22.5062 21.3674 22.5382 21.3234 22.5822C21.2794 22.6222 21.2474 22.6582 21.2274 22.6902C21.2074 22.7182 21.2054 22.7282 21.2214 22.7202C21.2334 22.7602 21.2674 22.8102 21.3234 22.8702C21.3794 22.9302 21.4454 22.9902 21.5214 23.0502C21.6014 23.1062 21.6794 23.1582 21.7554 23.2062C21.8354 23.2502 21.9014 23.2822 21.9534 23.3022C22.0454 23.3302 22.1094 23.3642 22.1454 23.4042C22.1854 23.4402 22.2054 23.4742 22.2054 23.5062C22.2054 23.5382 22.1894 23.5662 22.1574 23.5902C22.1294 23.6142 22.0934 23.6262 22.0494 23.6262C22.0334 23.6262 22.0134 23.6222 21.9894 23.6142C21.9014 23.5822 21.7894 23.5322 21.6534 23.4642C21.5214 23.3962 21.3934 23.3162 21.2694 23.2242C21.1454 23.1322 21.0514 23.0382 20.9874 22.9422H20.9814C20.9654 23.0302 20.9454 23.1302 20.9214 23.2422C20.9014 23.3542 20.8934 23.4442 20.8974 23.5122C20.8974 23.5362 20.9134 23.5642 20.9454 23.5962C20.9814 23.6242 20.9994 23.6562 20.9994 23.6922C20.9994 23.7282 20.9774 23.7622 20.9334 23.7942C20.9014 23.8142 20.8634 23.8242 20.8194 23.8242ZM23.7931 21.3462C23.7731 21.3702 23.7471 21.3722 23.7151 21.3522C23.6871 21.3322 23.6631 21.3022 23.6431 21.2622C23.6231 21.2182 23.6171 21.1762 23.6251 21.1362H23.6311C23.6471 21.0762 23.6671 21.0262 23.6911 20.9862C23.7151 20.9462 23.7471 20.9062 23.7871 20.8662C23.8111 20.8422 23.8431 20.8302 23.8831 20.8302C23.9191 20.8302 23.9511 20.8422 23.9791 20.8662C24.0111 20.8862 24.0271 20.9122 24.0271 20.9442C24.0271 20.9602 24.0211 20.9782 24.0091 20.9982C23.9971 21.0142 23.9731 21.0562 23.9371 21.1242C23.9051 21.1922 23.8571 21.2662 23.7931 21.3462ZM23.0371 23.5602C22.9731 23.5602 22.9091 23.5362 22.8451 23.4882C22.7851 23.4362 22.7611 23.3542 22.7731 23.2422C22.7891 23.0862 22.8111 22.9542 22.8391 22.8462C22.8671 22.7382 22.8991 22.6402 22.9351 22.5522C22.9711 22.4602 23.0091 22.3622 23.0491 22.2582C23.0931 22.1542 23.1371 22.0282 23.1811 21.8802C23.2051 21.8122 23.2551 21.7782 23.3311 21.7782C23.3831 21.7782 23.4291 21.7942 23.4691 21.8262C23.5091 21.8582 23.5211 21.9022 23.5051 21.9582C23.4531 22.1262 23.4011 22.2622 23.3491 22.3662C23.2971 22.4702 23.2491 22.5622 23.2051 22.6422C23.1611 22.7182 23.1231 22.8022 23.0911 22.8942C23.0631 22.9822 23.0451 23.0962 23.0371 23.2362C23.0371 23.2482 23.0631 23.2742 23.1151 23.3142C23.1671 23.3502 23.1931 23.3922 23.1931 23.4402C23.1931 23.4762 23.1731 23.5082 23.1331 23.5362C23.1131 23.5522 23.0811 23.5602 23.0371 23.5602ZM24.0944 24.0282C24.0544 24.0282 24.0164 24.0022 23.9804 23.9502C23.9484 23.8982 23.9324 23.8062 23.9324 23.6742C23.9324 23.5142 23.9564 23.3202 24.0044 23.0922C24.0564 22.8642 24.1224 22.6202 24.2024 22.3602C24.2864 22.1002 24.3744 21.8462 24.4664 21.5982H24.4604C24.4204 21.5902 24.3984 21.5642 24.3944 21.5202C24.3784 21.4682 24.3904 21.4182 24.4304 21.3702C24.4704 21.3222 24.5084 21.2982 24.5444 21.2982H24.5804C24.6724 21.0702 24.7584 20.8682 24.8384 20.6922C24.9224 20.5122 24.9904 20.3802 25.0424 20.2962C25.1224 20.1682 25.2184 20.0722 25.3304 20.0082C25.4424 19.9402 25.5544 19.9062 25.6664 19.9062C25.7504 19.9062 25.8304 19.9262 25.9064 19.9662C25.9824 20.0062 26.0464 20.0702 26.0984 20.1582C26.1664 20.2622 26.2104 20.3542 26.2304 20.4342C26.2544 20.5102 26.2704 20.6162 26.2784 20.7522V20.7582C26.2784 20.7902 26.2664 20.8142 26.2424 20.8302C26.2184 20.8462 26.1924 20.8542 26.1644 20.8542C26.1084 20.8542 26.0724 20.8282 26.0564 20.7762C26.0444 20.7202 26.0124 20.6422 25.9604 20.5422C25.8564 20.3342 25.7444 20.2302 25.6244 20.2302C25.5004 20.2302 25.3624 20.3462 25.2104 20.5782C25.1864 20.6102 25.1544 20.6682 25.1144 20.7522C25.0744 20.8322 25.0324 20.9202 24.9884 21.0162C24.9444 21.1122 24.9044 21.2002 24.8684 21.2802C24.9044 21.2762 24.9404 21.2742 24.9764 21.2742C25.0124 21.2742 25.0484 21.2742 25.0844 21.2742C25.1524 21.2742 25.2224 21.2762 25.2944 21.2802C25.3704 21.2842 25.4564 21.2922 25.5524 21.3042C25.5724 21.3082 25.5924 21.3222 25.6124 21.3462C25.6324 21.3702 25.6424 21.3962 25.6424 21.4242C25.6424 21.4402 25.6344 21.4582 25.6184 21.4782C25.6064 21.4942 25.5804 21.5042 25.5404 21.5082C25.4044 21.5242 25.2584 21.5342 25.1024 21.5382C24.9504 21.5382 24.8344 21.5422 24.7544 21.5502C24.6944 21.7062 24.6324 21.8822 24.5684 22.0782C24.5044 22.2702 24.4444 22.4662 24.3884 22.6662C24.3324 22.8662 24.2864 23.0542 24.2504 23.2302C24.2184 23.4022 24.2044 23.5442 24.2084 23.6562C24.2084 23.6962 24.2184 23.7322 24.2384 23.7642C24.2584 23.8002 24.2684 23.8362 24.2684 23.8722C24.2684 23.8882 24.2624 23.9062 24.2504 23.9262C24.2384 23.9502 24.2164 23.9742 24.1844 23.9982C24.1524 24.0182 24.1224 24.0282 24.0944 24.0282ZM25.7925 25.1202C25.7245 25.1202 25.6605 25.1122 25.6005 25.0962C25.5205 25.0722 25.4565 25.0302 25.4085 24.9702C25.3605 24.9102 25.3365 24.8482 25.3365 24.7842C25.3365 24.7162 25.3405 24.6702 25.3485 24.6462C25.3565 24.6222 25.3745 24.6102 25.4025 24.6102C25.4265 24.6102 25.4685 24.6162 25.5285 24.6282C25.5605 24.6282 25.5925 24.6542 25.6245 24.7062C25.6565 24.7622 25.6925 24.8002 25.7325 24.8202C25.7845 24.8402 25.8285 24.8502 25.8645 24.8502C25.9365 24.8502 26.0025 24.8322 26.0625 24.7962C26.1265 24.7602 26.1805 24.7222 26.2245 24.6822C26.3685 24.5582 26.4925 24.4302 26.5965 24.2982C26.7005 24.1662 26.7965 24.0162 26.8845 23.8482C26.9765 23.6842 27.0665 23.4922 27.1545 23.2722C27.1825 23.2082 27.2085 23.1342 27.2325 23.0502C27.2605 22.9622 27.2825 22.8802 27.2985 22.8042C27.3185 22.7242 27.3265 22.6662 27.3225 22.6302C27.3025 22.6462 27.2805 22.6642 27.2565 22.6842C27.2365 22.7042 27.2145 22.7242 27.1905 22.7442C27.0985 22.8282 26.9885 22.9122 26.8605 22.9962C26.7365 23.0802 26.6045 23.1502 26.4645 23.2062C26.3245 23.2622 26.1805 23.2902 26.0325 23.2902C25.9005 23.2902 25.7765 23.2642 25.6605 23.2122C25.5245 23.1482 25.4285 23.0642 25.3725 22.9602C25.3165 22.8562 25.2885 22.7462 25.2885 22.6302C25.2885 22.5742 25.2925 22.5202 25.3005 22.4682C25.3125 22.4162 25.3265 22.3642 25.3425 22.3122C25.3745 22.2002 25.4325 22.0982 25.5165 22.0062C25.6005 21.9102 25.6945 21.8302 25.7985 21.7662C25.9025 21.7022 26.0025 21.6602 26.0985 21.6402C26.1065 21.6362 26.1165 21.6342 26.1285 21.6342C26.1405 21.6342 26.1505 21.6342 26.1585 21.6342C26.2145 21.6342 26.2605 21.6502 26.2965 21.6822C26.3325 21.7102 26.3505 21.7402 26.3505 21.7722C26.3505 21.8122 26.3225 21.8442 26.2665 21.8682C26.1705 21.9042 26.0845 21.9402 26.0085 21.9762C25.9365 22.0122 25.8725 22.0602 25.8165 22.1202C25.7645 22.1802 25.7165 22.2682 25.6725 22.3842C25.6605 22.4162 25.6505 22.4542 25.6425 22.4982C25.6345 22.5422 25.6305 22.5882 25.6305 22.6362C25.6305 22.7122 25.6425 22.7862 25.6665 22.8582C25.6945 22.9302 25.7405 22.9762 25.8045 22.9962C25.8845 23.0202 25.9625 23.0322 26.0385 23.0322C26.2145 23.0322 26.3865 22.9862 26.5545 22.8942C26.7265 22.7982 26.8765 22.6962 27.0045 22.5882C27.1805 22.4482 27.2925 22.3322 27.3405 22.2402C27.3925 22.1442 27.4285 22.0622 27.4485 21.9942C27.4605 21.9502 27.4825 21.9202 27.5145 21.9042C27.5465 21.8842 27.5805 21.8742 27.6165 21.8742C27.6605 21.8742 27.7005 21.8902 27.7365 21.9222C27.7765 21.9502 27.7885 21.9882 27.7725 22.0362C27.7125 22.2562 27.6485 22.4982 27.5805 22.7622C27.5165 23.0262 27.4325 23.2922 27.3285 23.5602C27.2285 23.8282 27.0965 24.0822 26.9325 24.3222C26.7685 24.5662 26.5585 24.7782 26.3025 24.9582C26.2385 25.0022 26.1625 25.0402 26.0745 25.0722C25.9865 25.1042 25.8925 25.1202 25.7925 25.1202Z" fill="white"/>
</svg>
